<?xml version="1.0" encoding="utf-8"?>
<!-- Generator: Adobe Illustrator 22.1.0, SVG Export Plug-In . SVG Version: 6.00 Build 0)  -->
<svg version="1.1" xmlns="http://www.w3.org/2000/svg" xmlns:xlink="http://www.w3.org/1999/xlink"
	viewBox="0 0 2048 1062">
  <style type="text/css">
    .st1{fill:none;stroke:#000000;stroke-miterlimit:10;}
    .st2{fill:#FFFFFF;}
    .st3{fill:#2FEB54;}
    .st4{fill:#ED1818;}
  </style>
	<path class="st1" d="M1884-243"/>
	<g>
		<g>
			<g id="XMLID_1_">
				<g>
					<path class="st2" d="M487.4,408.3c64.4,1.9,120.2,55,119.2,124.1C607.9,599,552.4,658,479.2,656c-32.3-0.9-60.6-12.9-83.6-35.8
						c-24.4-24.2-36.7-54.2-36.7-88.3c0-33.7,12.2-63.6,36.3-87.6C420.6,419.3,451.7,407.2,487.4,408.3z M603.5,526
						c-0.5-12.4-2.8-25.6-8.5-38.3c-7.5,3.2-14.5,6.1-21,8.8C584.2,506.7,594.2,516.7,603.5,526z M595.1,576.8
						c5.4-12.7,8-26,8.4-38.7c-9.5,9.5-19.6,19.6-29.9,29.9C580.3,570.7,587.4,573.6,595.1,576.8z M592.2,485.2
						c0.5-0.2,0.8-2.3,0.4-3.2c-5.1-11.6-12.2-21.8-21.1-31.6c0,14.7,0,28.7,0,43.6C578.9,490.9,585.6,488.1,592.2,485.2z
						 M592.4,583.1c0.6-1,0.1-3.8-0.7-4.2c-6.5-2.9-13.2-5.4-20.1-8.2c0,14.4,0,28.5,0,43.3c2.9-3.5,5.7-6.2,7.8-9.4
						C584,597.6,588.3,590.4,592.4,583.1z M603.2,531.8c-11.4-10.9-22.3-21.3-33.3-31.9c-4.1,7.7-7.9,15.8-12.5,23.4
						c-3.7,6.1-4.1,11.2-0.1,17.5c4.8,7.6,8.4,15.9,12,22.9C580.4,553.2,591.5,542.7,603.2,531.8z M567.9,494.2
						c0-15.7,0-30.8,0-46.4c-15.6,0-30.8,0-46.4,0c2.9,9.2,6.3,18.2,8.5,27.3c1.4,5.9,4.3,8.7,10.1,10.2
						C549.4,487.9,558.5,491.2,567.9,494.2z M567.8,616.5c0-15.7,0-30.8,0-46.3c-11.5,3.8-22.8,7.4-34,11.2c-0.8,0.3-1.7,1-1.9,1.7
						c-3.5,11-7,22.1-10.5,33.4C537,616.5,552.2,616.5,567.8,616.5z M565.4,621.7c-0.2-0.5-0.5-1-0.7-1.5c-14.2,0-28.4,0-43.1,0
						c3.2,7.7,6.3,15.1,9.9,23.6C543.1,636.3,554.2,629,565.4,621.7z M521.6,444.1c14.6,0,28.8,0,43.8,0
						c-10.5-9.7-21.7-17.1-34.4-22.6C527.8,429.1,524.7,436.5,521.6,444.1z M551.2,528.3c5.7-10.9,10.9-20.8,16.2-30.8
						c-11.1-3.5-21.8-6.9-33.4-10.6C539.9,500.9,545.3,514,551.2,528.3z M567.3,567.1c-5.4-10.3-10.5-20.1-16-30.5
						c-6,13.9-11.5,26.8-17,39.7c0.3,0.3,0.5,0.7,0.8,1C545.8,573.9,556.4,570.6,567.3,567.1z M547.8,536c0.8-1.9,1-4.5,0.3-6.3
						c-5.4-13.6-11-27.2-16.8-40.6c-0.9-2.1-3.1-4.2-5.2-5.1c-12.4-5.4-24.9-10.5-37.4-15.6c-3.1-1.3-6-2.6-9.7-0.9
						c-12.9,5.7-26,10.8-38.9,16.5c-2.1,0.9-4.2,3-5.1,5.1c-6,13.5-11.7,27.1-17.4,40.8c-0.6,1.4-0.5,3.4,0,4.8
						c5.3,13.2,10.6,26.4,16.1,39.5c0.8,1.9,2.4,4.2,4.2,5c14,6.4,28.1,12.5,42.2,18.6c0.8,0.3,1.7,0.3,2.9,0.5
						c0.8-0.3,1.9-0.6,2.9-1.1c13.7-5.6,27.4-11.2,41-17c1.3-0.5,2.5-1.9,3.1-3.1C536.2,563.5,542.1,549.8,547.8,536z M528.5,481.2
						c-3.5-11.3-6.8-22-10.3-33.2c-10.6,5.5-20.6,10.7-31.1,16.2C501,469.9,514.5,475.4,528.5,481.2z M519.1,441.6
						c2.7-6.7,5.7-13.8,8.8-21.5c-13-5-25.9-8-38.7-8.4C499.1,421.7,509.1,431.6,519.1,441.6z M518.3,616.3
						c3.3-11.1,6.4-21.4,9.8-32.9c-14.2,5.9-27.2,11.4-41.2,17.3C498,606.2,508,611.2,518.3,616.3z M527.9,644.2
						c-3.1-7.6-6.1-14.8-9-21.8c-10.1,10.1-20.1,20.1-30.5,30.5C502.1,651.9,515.1,649.4,527.9,644.2z M485.2,461.1
						c10.3-5,20.5-10.4,30.1-15.2c-10.5-11.4-20.9-22.7-31.6-34.3c-11.6,12-22.3,23.1-32.9,34.1c9.5,5,19.3,10.2,29.2,15.2
						C481.4,461.6,483.8,461.8,485.2,461.1z M515.9,618.7c-10.1-5.1-20.2-10.2-30.4-15.2c-1.2-0.6-3.1-0.6-4.3-0.1
						c-10.3,5-20.6,10.1-30.8,15.2c11,11,21.8,21.9,33.6,33.8C494.7,641.1,505.3,629.9,515.9,618.7z M477.8,411.9
						c-10-0.8-33.6,4.6-39.1,8.8c3,7.2,5.9,14.4,8.8,21.4C457.7,432,467.7,422.1,477.8,411.9z M479,464.1
						c-10.7-5.6-20.7-10.8-30.9-16.1c-3.5,11.3-6.7,21.8-10.2,33.1C451.8,475.4,465,469.9,479,464.1z M448,615.9
						c10.2-5.1,20.2-10,30.7-15.3c-14.2-6.1-27.7-11.9-41.8-18C440.8,594.3,444.3,604.9,448,615.9z M438.4,644.2
						c12.8,5.1,25.8,7.9,39,8.5c-10.2-10.2-20.1-20.1-30.2-30.2C444.3,629.4,441.4,636.6,438.4,644.2z M444.7,448.1
						c-15.7,0-31,0-46.4,0c0,15.4,0,30.4,0,46.3c10-3.3,19.6-6.7,29.3-9.5c4.6-1.3,7-3.4,8.2-8.2C438.5,467,441.8,457.6,444.7,448.1
						z M400.9,444.1c14.9,0,29.1,0,43.9,0c-3.2-7.7-6.3-15.1-9.4-22.6C422.5,427.1,411.3,434.3,400.9,444.1z M398.5,616.5
						c15.4,0,30.6,0,46.1,0c-3.7-11.3-7.3-22.5-11.1-33.6c-0.3-1-1.6-1.9-2.6-2.3c-6.1-2.1-12.2-4.2-18.3-6.1
						c-4.6-1.4-9.2-2.6-14-3.9C398.5,586.2,398.5,601.2,398.5,616.5z M444.3,620.5c-14.7,0-28.8,0-42.9,0c-0.2,0.4-0.4,0.9-0.6,1.3
						c11.1,7.2,22.1,14.5,34,22.2C438.3,635.4,441.3,628.1,444.3,620.5z M414.5,528.4c6-14,11.6-27.3,17.7-41.6
						c-11.7,3.7-22.3,7.1-33.3,10.6C404,507.8,409.1,517.7,414.5,528.4z M431.4,577c-5.7-13.8-11.1-26.9-16.8-40.6
						c-5.5,10.6-10.5,20.5-15.8,30.7C409.8,570.5,420.3,573.7,431.4,577z M412,533.6c0.4-0.9,0.2-2.4-0.3-3.3
						c-5.1-10.3-10.4-20.5-15.6-30.5c-11,10.7-21.8,21.1-33.3,32.2c11.6,11.2,22.5,21.7,33.7,32.5C401.6,554.4,406.9,544,412,533.6z
						 M394.6,614.5c0-15.2,0-29.1,0-43.7c-6.8,2.7-13.2,5.3-19.6,7.7c-2.2,0.9-2.9,2-1.5,4.3c3.9,6.4,7.5,12.9,11.5,19.2
						C387.7,606.1,391,609.8,394.6,614.5z M394.6,493.9c0-14.7,0-28.7,0-42.7c-0.5-0.3-0.9-0.5-1.4-0.8c-5.7,8.7-11.7,17.1-17,26
						c-4.5,7.5-4.2,7.8,3.5,11.3C384.5,489.8,389.4,491.7,394.6,493.9z M373.4,575.7c6.7-2.4,13.2-5.2,19-7.5
						c-10.1-10.1-20.3-20.3-30-30c0.2,1,0.6,3,0.7,5c0.6,10.7,3.1,20.9,7.1,30.8C370.5,574.9,372.6,576,373.4,575.7z M392.3,496.6
						c-6.8-2.9-14-5.9-21.4-8.9c-5.3,13.1-7.7,26.2-8.5,38.8C372.1,516.8,382.1,506.7,392.3,496.6z"/>
					<path d="M595,487.7c5.7,12.7,8.1,25.9,8.5,38.3c-9.3-9.2-19.3-19.3-29.6-29.5C580.5,493.7,587.4,490.8,595,487.7z"/>
					<path d="M603.5,538.1c-0.5,12.7-3,26-8.4,38.7c-7.6-3.1-14.7-6-21.5-8.8C583.9,557.7,594,547.5,603.5,538.1z"/>
					<path d="M592.7,482c0.4,0.9,0.1,3-0.4,3.2c-6.6,3-13.3,5.7-20.7,8.7c0-14.8,0-28.8,0-43.6C580.5,460.2,587.6,470.4,592.7,482z"
						/>
					<path d="M591.8,579c0.7,0.3,1.2,3.2,0.7,4.2c-4.2,7.3-8.5,14.4-13,21.5c-2.1,3.2-4.8,5.9-7.8,9.4c0-14.8,0-28.9,0-43.3
						C578.6,573.6,585.3,576.1,591.8,579z"/>
					<path d="M569.8,499.9c11,10.5,22,21,33.3,31.9c-11.7,11-22.7,21.4-33.9,32c-3.6-7-7.2-15.3-12-22.9c-4-6.3-3.6-11.4,0.1-17.5
						C561.9,515.7,565.8,507.6,569.8,499.9z"/>
					<path d="M567.9,447.9c0,15.6,0,30.7,0,46.4c-9.4-3-18.5-6.4-27.8-8.8c-5.7-1.5-8.7-4.3-10.1-10.2c-2.2-9.2-5.6-18.1-8.5-27.3
						C537,447.9,552.2,447.9,567.9,447.9z"/>
					<path d="M567.8,570.2c0,15.5,0,30.7,0,46.3c-15.6,0-30.8,0-46.4,0c3.5-11.3,6.9-22.3,10.5-33.4c0.2-0.7,1.1-1.5,1.9-1.7
						C545,577.6,556.3,574,567.8,570.2z"/>
					<path d="M564.7,620.3c0.2,0.5,0.5,1,0.7,1.5c-11.1,7.3-22.3,14.6-33.9,22.2c-3.5-8.5-6.6-16-9.9-23.6
						C536.2,620.3,550.4,620.3,564.7,620.3z"/>
					<path d="M565.3,444.1c-15,0-29.2,0-43.8,0c3.2-7.6,6.2-15,9.4-22.6C543.7,427,554.8,434.4,565.3,444.1z"/>
					<path d="M567.4,497.4c-5.3,10.1-10.5,19.9-16.2,30.8c-5.9-14.3-11.3-27.3-17.2-41.4C545.6,490.5,556.3,493.9,567.4,497.4z"/>
					<path d="M551.3,536.6c5.4,10.4,10.6,20.2,16,30.5c-10.9,3.4-21.5,6.8-32.1,10.1c-0.3-0.3-0.5-0.7-0.8-1
						C539.9,563.4,545.4,550.5,551.3,536.6z"/>
					<path d="M548.1,529.7c0.7,1.8,0.5,4.5-0.3,6.3c-5.7,13.8-11.7,27.5-17.7,41.1c-0.6,1.3-1.8,2.6-3.1,3.1
						c-13.6,5.8-27.3,11.4-41,17c-1,0.4-2.1,0.8-2.9,1.1c-1.2-0.2-2.2-0.2-2.9-0.5c-14.1-6.1-28.2-12.2-42.2-18.6
						c-1.8-0.8-3.3-3.1-4.2-5c-5.5-13.1-10.9-26.3-16.1-39.5c-0.6-1.4-0.6-3.4,0-4.8c5.7-13.7,11.4-27.3,17.4-40.8
						c0.9-2.1,3.1-4.2,5.1-5.1c12.9-5.7,26-10.8,38.9-16.5c3.7-1.7,6.6-0.3,9.7,0.9c12.5,5.1,25,10.2,37.4,15.6
						c2.1,0.9,4.3,3,5.2,5.1C537.1,502.5,542.7,516.1,548.1,529.7z"/>
					<path d="M518.2,448c3.5,11.2,6.8,21.9,10.3,33.2c-14-5.8-27.5-11.3-41.4-17.1C497.5,458.7,507.6,453.5,518.2,448z"/>
					<path d="M527.9,420.1c-3.2,7.7-6.1,14.9-8.8,21.5c-10-10-19.9-19.9-29.9-29.9C502,412.1,514.9,415.1,527.9,420.1z"/>
					<path d="M528.1,583.4c-3.4,11.5-6.5,21.8-9.8,32.9c-10.3-5.1-20.2-10.1-31.4-15.6C500.9,594.8,513.9,589.3,528.1,583.4z"/>
					<path d="M518.9,622.3c2.9,7,5.8,14.2,9,21.8c-12.8,5.3-25.8,7.7-39.5,8.7C498.8,642.4,508.8,632.4,518.9,622.3z"/>
					<path d="M515.3,445.8c-9.5,4.9-19.7,10.2-30.1,15.2c-1.4,0.7-3.8,0.5-5.2-0.3c-9.9-5-19.7-10.2-29.2-15.2
						c10.6-11,21.3-22.1,32.9-34.1C494.4,423.2,504.8,434.4,515.3,445.8z"/>
					<path d="M485.5,603.5c10.2,5,20.3,10.1,30.4,15.2c-10.6,11.2-21.2,22.3-32,33.7c-11.8-11.9-22.6-22.7-33.6-33.8
						c10.2-5.1,20.5-10.2,30.8-15.2C482.3,602.9,484.3,602.9,485.5,603.5z"/>
					<path d="M438.7,420.8c5.5-4.3,29.1-9.6,39.1-8.8c-10.1,10.1-20.1,20.1-30.3,30.3C444.6,435.1,441.6,427.9,438.7,420.8z"/>
					<path d="M448.1,448c10.2,5.3,20.2,10.5,30.9,16.1c-14,5.8-27.2,11.3-41.2,17.1C441.3,469.8,444.6,459.3,448.1,448z"/>
					<path d="M478.7,600.6c-10.5,5.2-20.6,10.2-30.7,15.3c-3.6-11-7.2-21.6-11-33.2C451,588.7,464.5,594.5,478.7,600.6z"/>
					<path d="M477.3,652.7c-13.2-0.6-26.1-3.4-39-8.5c3.1-7.6,6-14.8,8.7-21.7C457.2,632.6,467.2,642.5,477.3,652.7z"/>
					<path d="M398.4,448.1c15.4,0,30.7,0,46.4,0c-3,9.5-6.3,19-8.8,28.6c-1.2,4.7-3.6,6.9-8.2,8.2c-9.8,2.8-19.3,6.2-29.3,9.5
						C398.4,478.5,398.4,463.4,398.4,448.1z"/>
					<path d="M444.7,444.1c-14.8,0-28.9,0-43.9,0c10.4-9.7,21.6-17,34.4-22.6C438.4,429,441.5,436.4,444.7,444.1z"/>
					<path d="M444.6,616.5c-15.5,0-30.7,0-46.1,0c0-15.2,0-30.2,0-45.9c4.8,1.3,9.5,2.5,14,3.9c6.1,1.9,12.3,3.9,18.3,6.1
						c1,0.4,2.3,1.3,2.6,2.3C437.3,594,440.9,605.2,444.6,616.5z"/>
					<path d="M401.5,620.5c14.1,0,28.2,0,42.9,0c-3,7.5-6,14.9-9.4,23.5c-11.9-7.8-22.9-15-34-22.2
						C401.1,621.4,401.3,620.9,401.5,620.5z"/>
					<path d="M432.2,486.8c-6.1,14.3-11.7,27.5-17.7,41.6c-5.4-10.7-10.4-20.6-15.6-31C409.8,493.9,420.5,490.5,432.2,486.8z"/>
					<path d="M414.6,536.5c5.7,13.7,11.1,26.8,16.8,40.6c-11.1-3.4-21.6-6.5-32.6-9.8C404.1,556.9,409.2,547.1,414.6,536.5z"/>
					<path d="M411.7,530.3c0.5,0.9,0.7,2.4,0.3,3.3c-5.1,10.4-10.4,20.8-15.4,30.8c-11.1-10.7-22-21.3-33.7-32.5
						c11.5-11.1,22.2-21.5,33.3-32.2C401.3,509.8,406.6,520,411.7,530.3z"/>
					<path d="M394.6,570.8c0,14.6,0,28.4,0,43.7c-3.7-4.7-6.9-8.4-9.6-12.5c-4.1-6.2-7.6-12.8-11.5-19.2c-1.4-2.3-0.7-3.4,1.5-4.3
						C381.5,576.1,387.8,573.5,394.6,570.8z"/>
					<path d="M394.6,451.2c0,14,0,28,0,42.7c-5.2-2.2-10.1-4.1-14.9-6.2c-7.7-3.5-8-3.7-3.5-11.3c5.3-8.9,11.3-17.4,17-26
						C393.7,450.7,394.1,450.9,394.6,451.2z"/>
					<path d="M392.3,568.2c-5.8,2.3-12.3,5.1-19,7.5c-0.8,0.3-2.9-0.8-3.2-1.7c-4-9.9-6.4-20.1-7.1-30.8c-0.1-2-0.6-3.9-0.7-5
						C372.1,547.9,382.3,558.1,392.3,568.2z"/>
					<path d="M371,487.6c7.4,3.1,14.5,6.1,21.4,8.9c-10.2,10.2-20.2,20.2-29.9,29.9C363.2,513.8,365.6,500.7,371,487.6z"/>
				</g>
			</g>
		</g>
		<g>
			<path d="M654.4,528.9c0,47-16.5,87-49.5,120c-33,33.1-73,49.6-119.9,49.6c-47.5,0-88.3-16-122.5-47.9
				c-34.2-31.9-51.3-71.1-51.3-117.5c0-47,16.5-87,49.5-120c33-33.1,73-49.6,119.9-49.6c47.5,0,88.3,16,122.5,47.9
				C637.3,443.3,654.4,482.5,654.4,528.9z M615,528c0-36.4-13.2-67.2-39.5-92.4c-26.3-25.2-57.9-37.8-94.8-37.8
				c-36.3,0-67.1,13.2-92.2,39.5c-25.2,26.4-37.7,58-37.7,94.9c0,36.4,13.1,67.1,39.2,92.2c26.2,25.1,57.8,37.6,95,37.6
				c36.3,0,67.1-13.2,92.2-39.5C602.4,596.2,615,564.7,615,528z"/>
			<path d="M1023.5,698.5h-15.1L794.6,435.4v263h-37.8V363.5h18.6l209.4,260.6V363.5h38.7V698.5z"/>
			<polygon class="st3" points="1381.4,363.5 1334.4,363.5 1220.4,557.5 1174.4,482.5 1126.4,482.5 1220.4,635.5 1220.4,635.7 
				1261.4,566.5 1261.4,566.3"/>
			<polygon points="1220.4,698.5 1261.4,698.5 1261.4,591.5 1220.4,660.7"/>
			<path class="st4" d="M1736.7,698.3l-50.2,0.1l-84.4-145.7l-80,145.7l-46.6-0.1l105.6-177l-99.7-157.8h51l72.3,125.3l71.7-125.3
				h46l-95.4,157.8L1736.7,698.3z"/>
		</g>
		<path class="st1" d="M1220.4,399.5"/>
		<path class="st1" d="M1220.4,660.5"/>
		<path class="st1" d="M654.4,528.5"/>
	</g>
</svg>
