<?xml version="1.0" encoding="UTF-8" standalone="no"?>
<svg
  xmlns:osb="http://www.openswatchbook.org/uri/2009/osb"
  xmlns:dc="http://purl.org/dc/elements/1.1/"
  xmlns:cc="http://creativecommons.org/ns#"
  xmlns:rdf="http://www.w3.org/1999/02/22-rdf-syntax-ns#"
  xmlns:svg="http://www.w3.org/2000/svg"
  xmlns="http://www.w3.org/2000/svg"
  xmlns:xlink="http://www.w3.org/1999/xlink"
  version="1.1"
  viewBox="0 0 125.9629 39.590226"
  height="120"
  width="360"
>
  <defs>
    <linearGradient
      id="linearGradient3004"
    >
      <stop
        offset="0"
        style="stop-color: #f2f2f2; stop-opacity: 1;"
      />
      <stop
        offset="1"
        style="stop-color: #f2f2f2; stop-opacity: 0;"
      />
    </linearGradient>
    <linearGradient
      id="linearGradient2837"
    >
      <stop
        offset="0"
        style="stop-color: #ffffff; stop-opacity: 1;"
      />
      <stop
        offset="1"
        style="stop-color: #ffffff; stop-opacity: 0;"
      />
    </linearGradient>
    <radialGradient
      gradientUnits="userSpaceOnUse"
      r="26.458355"
      fy="-123.13173"
      fx="275.04202"
      cy="-123.13173"
      cx="275.04202"
      id="radialGradient3006"
      xlink:href="#linearGradient3004"
    />
    <radialGradient
      r="26.458355"
      fy="-123.13173"
      fx="275.04202"
      cy="-123.13173"
      cx="275.04202"
      gradientUnits="userSpaceOnUse"
      id="radialGradient3010"
      xlink:href="#linearGradient3004"
    />
    <filter
      height="1.0468715"
      y="-0.02343574"
      width="1.0491405"
      x="-0.024570208"
      id="filter3164"
      style="color-interpolation-filters: sRGB;"
    >
      <feGaussianBlur
        stdDeviation="0.68173359"
      />
    </filter>
    <filter
      height="1.0253302"
      y="-0.012665099"
      width="1.0227019"
      x="-0.011350878"
      id="filter3176"
      style="color-interpolation-filters: sRGB;"
    >
      <feGaussianBlur
        stdDeviation="0.34113246"
      />
    </filter>
  </defs>
  <metadata>
    <rdf:RDF>
      <cc:Work rdf:about="">
        <dc:format>image/svg+xml</dc:format>
        <dc:type
          rdf:resource="http://purl.org/dc/dcmitype/StillImage" />
        <dc:title></dc:title>
      </cc:Work>
    </rdf:RDF>
  </metadata>
  <g
    style="display: inline;"
    transform="translate(-130.02591,164.39887)"
  >
    <path
      d="m 163.33685,-130.50028 -13.93136,5.42633 -13.68796,-6.01397 -5.42632,-13.93137 6.01397,-13.68795 13.93136,-5.42633 13.68796,6.01397 5.42632,13.93137 z"
      style="fill: none; stroke: #1c1616; stroke-width: 0.3496488; stroke-miterlimit: 4;"
    />
    <path
      style="fill: #323232; stroke: #ffffff; stroke-width: 0.3496488; stroke-miterlimit: 4;"
      d="m 157.29508,-136.80474 -7.70385,3.00068 -7.56924,-3.32564 -3.00068,-7.70384 3.32564,-7.56924 7.70385,-3.00068 7.56924,3.32564 3.00068,7.70384 z"
    />
    <path
      d="m 136.30517,-158.70724 6.04178,6.30446 7.70385,-3.00068 0.18574,-8.73011 z"
      style="fill:#4e4e4e; stroke:#808080; stroke-width: 0.3496488; stroke-linecap: butt; stroke-linejoin: miter; stroke-miterlimit: 4;"
    />
    <path
      d="m 150.0508,-155.40346 c 7.56924,3.32564 7.56924,3.32564 7.56924,3.32564 l 6.30446,-6.04178 -13.68796,-6.01397 z"
      style="fill: #373737; stroke: #808080; stroke-width: 0.3496488; stroke-linecap: butt; stroke-linejoin: miter; stroke-miterlimit: 4;"
    />
    <path
      d="m 160.62072,-144.37398 -3.32564,7.56924 6.04177,6.30446 6.01397,-13.68795 z"
      style="fill: #010000; stroke: #808080; stroke-width: 0.3496488; stroke-linecap: butt; stroke-linejoin: miter; stroke-miterlimit: 4;"
    />
    <path
      d="m 149.59123,-133.80406 -0.18574,8.73011 13.93136,-5.42633 -6.04177,-6.30446 z"
      style="fill: #000000; stroke: #808080; stroke-width: 0.3496488; stroke-linecap: butt; stroke-linejoin: miter; stroke-miterlimit: 4;"
    />
    <path
      d="m 142.34695,-152.40278 -3.32564,7.56923 -8.7301,-0.18574 6.01396,-13.68795 z"
      style="fill: #4e4e4e; stroke: #808080; stroke-width: 0.3496488; stroke-linecap: butt; stroke-linejoin: miter; stroke-miterlimit: 4;"
    />
    <path
      d="m 142.02199,-137.1297 7.56924,3.32564 -0.18574,8.73011 -13.68796,-6.01397 z"
      style="fill: #212121; stroke: #808080; stroke-width: 0.3496488; stroke-linecap: butt; stroke-linejoin: miter; stroke-miterlimit: 4;"
    />
    <path
      d="m 139.02131,-144.83355 3.00068,7.70385 -6.30446,6.04178 -5.42632,-13.93137 z"
      style="fill: #373737; stroke: #808080; stroke-width: 0.3496488; stroke-linecap: butt; stroke-linejoin: miter; stroke-miterlimit: 4;"
    />
    <path
      d="m 163.92449,-158.1196 -6.30445,6.04177 3.00068,7.70385 8.7301,0.18574 z"
      style="fill: #212121; stroke: #808080; stroke-width: 0.3496488; stroke-linecap: butt; stroke-linejoin: miter; stroke-miterlimit: 4;"
    />
    <path
      transform="matrix(0.06854674, 0.0812797, -0.08871413, 0.06280238, 119.81229, -170.19784)"
      d="m 301.50038,-101.63432 -26.24031,-18.37909 -21.71546,23.340035 18.3791,-26.240315 -23.34004,-21.71545 26.24031,18.3791 21.71546,-23.34004 -18.3791,26.24031 z"
      style="fill: url(#radialGradient3006); stroke: none; filter: url(#filter3176);"
    />
    <path
      style="fill: url(#radialGradient3010); stroke: none; filter: url(#filter3164);"
      d="m 301.50038,-101.63432 -26.24031,-18.37909 -21.71546,23.340035 18.3791,-26.240315 -23.34004,-21.71545 26.24031,18.3791 21.71546,-23.34004 -18.3791,26.24031 z"
      transform="matrix(0.12713913, 0.17087566, -0.1645452, 0.13203049, 86.578433, -182.60167)"
    />
    <text
      transform="scale(0.98560601, 1.0146042)"
      y="-123.30714"
      x="171.53429"
      style="font-size: 46.90805054px; line-height: 1.25; stroke: none;"
      xml:space="preserve"
    >
      <tspan
        style="font-size: 46.90805054px; font-family: sans-serif; stroke-width: 0.07036208;"
        y="-123.30714"
        x="171.53429"
      >N</tspan>
    </text>
    <path
      d="m 222.70034,-159.24152 -10.83695,14.44927 -4.28962,-5.75712 -5.64425,0.11288 7.78906,9.59521 4.51539,0.11289 14.22349,-18.626 z"
      style="fill: #2DE276; stroke: none;"
    />
    <path
      d="m 209.98629,-137.48962 -0.27886,11.51206 4.11319,1e-5 0.0697,-11.59863 z"
      style="fill: #1E1A1B; stroke-width: 0.0978779px; stroke-linecap: butt; stroke-linejoin: miter;"
    />
    <text
      transform="scale(0.97795675, 1.0225401)"
      y="-122.28625"
      x="231.95137"
      style="font-size: 45.5904808px; line-height: 1.25; fill: #EF476F; stroke: none;"
      xml:space="preserve"
    >
      <tspan
        style="font-size: 45.5904808px; font-family: sans-serif; fill: #EF476F;"
        y="-122.28625"
        x="231.95137"
      >X</tspan>
    </text>
  </g>
</svg>
